<svg xmlns="http://www.w3.org/2000/svg" style="display:none;">
    <symbol id="tabler-gear" viewBox="0 0 24 24" stroke="currentColor" fill="none" stroke-width="2">
        <path stroke="none" d="M0 0h24v24H0z"/>
        <path d="M9.6 2.5l1.4 1.1a7 7 0 0 1 2 0l1.4-1.1a2 2 0 1 1 2.8 2.8l-1.1 1.4a7 7 0 0 1 0 2l1.1 1.4a2 2 0 1 1-2.8 2.8l-1.4-1.1a7 7 0 0 1-2 0l-1.4 1.1a2 2 0 1 1-2.8-2.8l1.1-1.4a7 7 0 0 1 0-2l-1.1-1.4a2 2 0 1 1 2.8-2.8z"/>
        <circle cx="12" cy="12" r="3"/>
    </symbol>
    <symbol id="tabler-home" viewBox="0 0 24 24" fill="none" stroke="currentColor" stroke-width="2" stroke-linecap="round"
            stroke-linejoin="round">
        <path stroke="none" d="M0 0h24v24H0z" fill="none"/>
        <path d="M5 12l-2 0l9 -9l9 9l-2 0"/>
        <path d="M5 12v7a2 2 0 0 0 2 2h10a2 2 0 0 0 2 -2v-7"/>
        <path d="M9 21v-6a2 2 0 0 1 2 -2h2a2 2 0 0 1 2 2v6"/>
    </symbol>
    <symbol id="tabler-user-shield" viewBox="0 0 24 24" fill="none" stroke="currentColor" stroke-width="2" stroke-linecap="round"
            stroke-linejoin="round">
        <path stroke="none" d="M0 0h24v24H0z" fill="none"/>
        <path d="M6 21v-2a4 4 0 0 1 4 -4h2"/>
        <path d="M22 16c0 4 -2.5 6 -3.5 6s-3.5 -2 -3.5 -6c1 0 2.5 -.5 3.5 -1.5c1 1 2.5 1.5 3.5 1.5z"/>
        <path d="M8 7a4 4 0 1 0 8 0a4 4 0 0 0 -8 0"/>
    </symbol>
    <symbol id="tabler-user" viewBox="0 0 24 24" fill="none" stroke="currentColor" stroke-width="2" stroke-linecap="round"
            stroke-linejoin="round">
        <path stroke="none" d="M0 0h24v24H0z" fill="none"/>
        <path d="M8 7a4 4 0 1 0 8 0a4 4 0 0 0 -8 0"/>
        <path d="M6 21v-2a4 4 0 0 1 4 -4h4a4 4 0 0 1 4 4v2"/>
    </symbol>
    <symbol id="tabler-users-group" viewBox="0 0 24 24" fill="none" stroke="currentColor" stroke-width="2" stroke-linecap="round"
            stroke-linejoin="round">
        <path stroke="none" d="M0 0h24v24H0z" fill="none"/>
        <path d="M10 13a2 2 0 1 0 4 0a2 2 0 0 0 -4 0"/>
        <path d="M8 21v-1a2 2 0 0 1 2 -2h4a2 2 0 0 1 2 2v1"/>
        <path d="M15 5a2 2 0 1 0 4 0a2 2 0 0 0 -4 0"/>
        <path d="M17 10h2a2 2 0 0 1 2 2v1"/>
        <path d="M5 5a2 2 0 1 0 4 0a2 2 0 0 0 -4 0"/>
        <path d="M3 13v-1a2 2 0 0 1 2 -2h2"/>
    </symbol>
    <symbol id="tabler-news" viewBox="0 0 24 24" fill="none" stroke="currentColor" stroke-width="2" stroke-linecap="round"
            stroke-linejoin="round">
        <path stroke="none" d="M0 0h24v24H0z" fill="none"/>
        <path d="M16 6h3a1 1 0 0 1 1 1v11a2 2 0 0 1 -4 0v-13a1 1 0 0 0 -1 -1h-10a1 1 0 0 0 -1 1v12a3 3 0 0 0 3 3h11"/>
        <path d="M8 8l4 0"/>
        <path d="M8 12l4 0"/>
        <path d="M8 16l4 0"/>
    </symbol>
    <symbol id="tabler-moon" viewBox="0 0 24 24" fill="none" stroke="currentColor" stroke-width="2" stroke-linecap="round"
            stroke-linejoin="round">
        <path d="M12 3c.132 0 .263 0 .393 0a7.5 7.5 0 0 0 7.92 12.446a9 9 0 1 1 -8.313 -12.454z"/>
    </symbol>
    <symbol id="tabler-sun" viewBox="0 0 24 24" fill="none" stroke="currentColor" stroke-width="2" stroke-linecap="round"
            stroke-linejoin="round">
        <path d="M12 12m-4 0a4 4 0 1 0 8 0a4 4 0 1 0 -8 0"/>
        <path d="M3 12h1m8 -9v1m8 8h1m-9 8v1m-6.4 -15.4l.7 .7m12.1 -.7l-.7 .7m0 11.4l.7 .7m-12.1 -.7l-.7 .7"/>
    </symbol>
    <symbol id="tabler-bell" viewBox="0 0 24 24" fill="none" stroke="currentColor" stroke-width="2" stroke-linecap="round"
            stroke-linejoin="round">
        <path d="M10 5a2 2 0 1 1 4 0a7 7 0 0 1 4 6v3a4 4 0 0 0 2 3h-16a4 4 0 0 0 2 -3v-3a7 7 0 0 1 4 -6"/>
        <path d="M9 17v1a3 3 0 0 0 6 0v-1"/>
    </symbol>
    <symbol id="tabler-star" viewBox="0 0 24 24" fill="none" stroke="currentColor" stroke-width="2" stroke-linecap="round"
            stroke-linejoin="round">
        <path d="M12 17.75l-6.172 3.245l1.179 -6.873l-5 -4.867l6.9 -1l3.086 -6.253l3.086 6.253l6.9 1l-5 4.867l1.179 6.873z"/>
    </symbol>
    <symbol id="tabler-apps" viewBox="0 0 24 24" fill="none" stroke="currentColor" stroke-width="2" stroke-linecap="round"
            stroke-linejoin="round">
        <path d="M4 4m0 1a1 1 0 0 1 1 -1h4a1 1 0 0 1 1 1v4a1 1 0 0 1 -1 1h-4a1 1 0 0 1 -1 -1z"/>
        <path d="M4 14m0 1a1 1 0 0 1 1 -1h4a1 1 0 0 1 1 1v4a1 1 0 0 1 -1 1h-4a1 1 0 0 1 -1 -1z"/>
        <path d="M14 14m0 1a1 1 0 0 1 1 -1h4a1 1 0 0 1 1 1v4a1 1 0 0 1 -1 1h-4a1 1 0 0 1 -1 -1z"/>
        <path d="M14 7l6 0"/>
        <path d="M17 4l0 6"/>
    </symbol>
    <symbol id="tabler-lifebuoy" viewBox="0 0 24 24" fill="none" stroke="currentColor" stroke-width="2" stroke-linecap="round"
            stroke-linejoin="round">
        <path stroke="none" d="M0 0h24v24H0z" fill="none"/>
        <path d="M12 12m-4 0a4 4 0 1 0 8 0a4 4 0 1 0 -8 0"/>
        <path d="M12 12m-9 0a9 9 0 1 0 18 0a9 9 0 1 0 -18 0"/>
        <path d="M15 15l3.35 3.35"/>
        <path d="M9 15l-3.35 3.35"/>
        <path d="M5.65 5.65l3.35 3.35"/>
        <path d="M18.35 5.65l-3.35 3.35"/>
    </symbol>
    <symbol id="tabler-heart" viewBox="0 0 24 24" fill="none" stroke="currentColor" stroke-width="2" stroke-linecap="round"
            stroke-linejoin="round">
        <path d="M19.5 12.572l-7.5 7.428l-7.5 -7.428a5 5 0 1 1 7.5 -6.566a5 5 0 1 1 7.5 6.572"/>
    </symbol>
    <symbol id="tabler-trending-up" viewBox="0 0 24 24" fill="none" stroke="currentColor" stroke-width="2" stroke-linecap="round"
            stroke-linejoin="round">
        <path d="M3 17l6 -6l4 4l8 -8"/>
        <path d="M14 7l7 0l0 7"/>
    </symbol>
    <symbol id="tabler-trending-down" viewBox="0 0 24 24" fill="none" stroke="currentColor" stroke-width="2" stroke-linecap="round"
            stroke-linejoin="round">
        <path d="M3 7l6 6l4 -4l8 8"/>
        <path d="M21 10l0 7l-7 0"/>
    </symbol>
    <symbol id="tabler-setting" viewBox="0 0 24 24" fill="none" stroke="currentColor" stroke-width="2" stroke-linecap="round"
            stroke-linejoin="round">
        <path stroke="none" d="M0 0h24v24H0z" fill="none"/>
        <path d="M12.003 21c-.732 .001 -1.465 -.438 -1.678 -1.317a1.724 1.724 0 0 0 -2.573 -1.066c-1.543 .94 -3.31 -.826 -2.37 -2.37a1.724 1.724 0 0 0 -1.065 -2.572c-1.756 -.426 -1.756 -2.924 0 -3.35a1.724 1.724 0 0 0 1.066 -2.573c-.94 -1.543 .826 -3.31 2.37 -2.37c1 .608 2.296 .07 2.572 -1.065c.426 -1.756 2.924 -1.756 3.35 0a1.724 1.724 0 0 0 2.573 1.066c1.543 -.94 3.31 .826 2.37 2.37a1.724 1.724 0 0 0 1.065 2.572c.886 .215 1.325 .957 1.318 1.694"/>
        <path d="M9 12a3 3 0 1 0 6 0a3 3 0 0 0 -6 0"/>
        <path d="M19.001 19m-2 0a2 2 0 1 0 4 0a2 2 0 1 0 -4 0"/>
        <path d="M19.001 15.5v1.5"/>
        <path d="M19.001 21v1.5"/>
        <path d="M22.032 17.25l-1.299 .75"/>
        <path d="M17.27 20l-1.3 .75"/>
        <path d="M15.97 17.25l1.3 .75"/>
        <path d="M20.733 20l1.3 .75"/>
    </symbol>
    <symbol id="tabler-menu" viewBox="0 0 24 24" fill="none" stroke="currentColor" stroke-width="2" stroke-linecap="round"
            stroke-linejoin="round">
        <path stroke="none" d="M0 0h24v24H0z" fill="none"/>
        <path d="M4 6h16"/>
        <path d="M7 12h13"/>
        <path d="M10 18h10"/>
    </symbol>
    <symbol id="tabler-archive" viewBox="0 0 24 24" fill="none" stroke="currentColor" stroke-width="2" stroke-linecap="round"
            stroke-linejoin="round">
        <path stroke="none" d="M0 0h24v24H0z" fill="none"/>
        <path d="M3 4m0 2a2 2 0 0 1 2 -2h14a2 2 0 0 1 2 2v0a2 2 0 0 1 -2 2h-14a2 2 0 0 1 -2 -2z"/>
        <path d="M5 8v10a2 2 0 0 0 2 2h10a2 2 0 0 0 2 -2v-10"/>
        <path d="M10 12l4 0"/>
    </symbol>
    <symbol id="tabler-list" viewBox="0 0 24 24" fill="none" stroke="currentColor" stroke-width="2" stroke-linecap="round"
            stroke-linejoin="round">
        <path stroke="none" d="M0 0h24v24H0z" fill="none"/>
        <path d="M9 6l11 0"/>
        <path d="M9 12l11 0"/>
        <path d="M9 18l11 0"/>
        <path d="M5 6l0 .01"/>
        <path d="M5 12l0 .01"/>
        <path d="M5 18l0 .01"/>
    </symbol>
    <symbol id="tabler-search" viewBox="0 0 24 24" fill="none" stroke="currentColor" stroke-width="2" stroke-linecap="round"
            stroke-linejoin="round">
        <path stroke="none" d="M0 0h24v24H0z" fill="none"/>
        <path d="M10 10m-7 0a7 7 0 1 0 14 0a7 7 0 1 0 -14 0"/>
        <path d="M21 21l-6 -6"/>
    </symbol>
    <symbol id="tabler-edit" viewBox="0 0 24 24" fill="none" stroke="currentColor" stroke-width="2" stroke-linecap="round"
            stroke-linejoin="round">
        <path stroke="none" d="M0 0h24v24H0z" fill="none"/>
        <path d="M7 7h-1a2 2 0 0 0 -2 2v9a2 2 0 0 0 2 2h9a2 2 0 0 0 2 -2v-1"/>
        <path d="M20.385 6.585a2.1 2.1 0 0 0 -2.97 -2.97l-8.415 8.385v3h3l8.385 -8.415z"/>
        <path d="M16 5l3 3"/>
    </symbol>
    <symbol id="tabler-delete" viewBox="0 0 24 24" fill="none" stroke="currentColor" stroke-width="2" stroke-linecap="round"
            stroke-linejoin="round">
        <path stroke="none" d="M0 0h24v24H0z" fill="none"/>
        <path d="M4 7l16 0"/>
        <path d="M10 11l0 6"/>
        <path d="M14 11l0 6"/>
        <path d="M5 7l1 12a2 2 0 0 0 2 2h8a2 2 0 0 0 2 -2l1 -12"/>
        <path d="M9 7v-3a1 1 0 0 1 1 -1h4a1 1 0 0 1 1 1v3"/>
    </symbol>
    <symbol id="tabler-plus" viewBox="0 0 24 24" fill="none" stroke="currentColor" stroke-width="2" stroke-linecap="round"
            stroke-linejoin="round">
        <path stroke="none" d="M0 0h24v24H0z" fill="none"/>
        <path d="M12 5l0 14"/>
        <path d="M5 12l14 0"/>
    </symbol>
    <symbol id="tabler-minus" viewBox="0 0 24 24" fill="none" stroke="currentColor" stroke-width="2" stroke-linecap="round"
            stroke-linejoin="round">
        <path stroke="none" d="M0 0h24v24H0z" fill="none"/>
        <path d="M5 12l14 0"/>
    </symbol>
    <symbol id="tabler-refresh" viewBox="0 0 24 24" fill="none" stroke="currentColor" stroke-width="2" stroke-linecap="round"
            stroke-linejoin="round">
        <path stroke="none" d="M0 0h24v24H0z" fill="none"/>
        <path d="M20 11a8.1 8.1 0 0 0 -15.5 -2m-.5 -4v4h4"/>
        <path d="M4 13a8.1 8.1 0 0 0 15.5 2m.5 4v-4h-4"/>
    </symbol>
    <symbol id="tabler-chevron-right" viewBox="0 0 24 24" fill="none" stroke="currentColor" stroke-width="2" stroke-linecap="round"
            stroke-linejoin="round">
        <path d="M9 6l6 6l-6 6"/>
    </symbol>
    <symbol id="tabler-chevron-left" viewBox="0 0 24 24" fill="none" stroke="currentColor" stroke-width="2" stroke-linecap="round"
            stroke-linejoin="round">
        <path d="M15 6l-6 6l6 6"/>
    </symbol>
    <symbol id="tabler-chevron-down" viewBox="0 0 24 24" fill="none" stroke="currentColor" stroke-width="2" stroke-linecap="round"
            stroke-linejoin="round">
        <path d="M6 9l6 6l6 -6"/>
    </symbol>
    <symbol id="tabler-eye" viewBox="0 0 24 24" fill="none" stroke="currentColor" stroke-width="2" stroke-linecap="round"
            stroke-linejoin="round">
        <path stroke="none" d="M0 0h24v24H0z" fill="none"/>
        <path d="M10 12a2 2 0 1 0 4 0a2 2 0 0 0 -4 0"/>
        <path d="M21 12c-2.4 4 -5.4 6 -9 6c-3.6 0 -6.6 -2 -9 -6c2.4 -4 5.4 -6 9 -6c3.6 0 6.6 2 9 6"/>
    </symbol>
    <symbol id="tabler-eye-off" viewBox="0 0 24 24" fill="none" stroke="currentColor" stroke-width="2" stroke-linecap="round"
            stroke-linejoin="round">
        <path stroke="none" d="M0 0h24v24H0z" fill="none"/>
        <path d="M10.585 10.587a2 2 0 0 0 2.829 2.828"/>
        <path d="M16.681 16.673a8.717 8.717 0 0 1 -4.681 1.327c-3.6 0 -6.6 -2 -9 -6
             c1.272 -2.12 2.712 -3.678 4.32 -4.674m2.86 -1.146a9.055 9.055 0 0 1 1.82 -.18
             c3.6 0 6.6 2 9 6c-.666 1.11 -1.379 2.067 -2.138 2.87"/>
        <path d="M3 3l18 18"/>
    </symbol>
    <symbol id="tabler-eye-closed" viewBox="0 0 24 24" fill="none" stroke="currentColor" stroke-width="2" stroke-linecap="round"
            stroke-linejoin="round">
        <path stroke="none" d="M0 0h24v24H0z" fill="none"/>
        <path d="M21 9c-2.4 2.667 -5.4 4 -9 4c-3.6 0 -6.6 -1.333 -9 -4"/>
        <path d="M3 15l2.5 -3.8"/>
        <path d="M21 14.976l-2.492 -3.776"/>
        <path d="M9 17l.5 -4"/>
        <path d="M15 17l-.5 -4"/>
    </symbol>
    <symbol id="tabler-x" viewBox="0 0 24 24" fill="none" stroke="currentColor" stroke-width="2" stroke-linecap="round"
            stroke-linejoin="round">
        <path stroke="none" d="M0 0h24v24H0z" fill="none"/>
        <path d="M18 6l-12 12"/>
        <path d="M6 6l12 12"/>
    </symbol>
    <symbol id="tabler-copy-x" viewBox="0 0 24 24" fill="none" stroke="currentColor" stroke-width="2" stroke-linecap="round"
            stroke-linejoin="round">
        <path stroke="none" d="M0 0h24v24H0z" fill="none"/>
        <path d="M7 9.667a2.667 2.667 0 0 1 2.667 -2.667h8.666a2.667 2.667 0 0 1 2.667 2.667v8.666a2.667 2.667 0 0 1 -2.667 2.667h-8.666a2.667 2.667 0 0 1 -2.667 -2.667z"/>
        <path d="M4.012 16.737a2 2 0 0 1 -1.012 -1.737v-10c0 -1.1 .9 -2 2 -2h10c.75 0 1.158 .385 1.5 1"/>
        <path d="M11.5 11.5l4.9 5"/>
        <path d="M16.5 11.5l-5.1 5"/>
    </symbol>
    <symbol id="tabler-filter-x" viewBox="0 0 24 24" fill="none" stroke="currentColor" stroke-width="2" stroke-linecap="round"
            stroke-linejoin="round">
        <path stroke="none" d="M0 0h24v24H0z" fill="none"/>
        <path d="M13.758 19.414l-4.758 1.586v-8.5l-4.48-4.928a2 2 0 0 1-.52-1.345v-2.227h16v2.172a2 2 0 0 1-.586 1.414l-4.414 4.414v1.5"/>
        <path d="M22 22l-5-5"/>
        <path d="M17 22l5-5"/>
    </symbol>
    <symbol id="tabler-alert-circle" viewBox="0 0 24 24" fill="none" stroke="currentColor" stroke-width="2" stroke-linecap="round"
            stroke-linejoin="round">
        <path stroke="none" d="M0 0h24v24H0z" fill="none"/>
        <path d="M3 12a9 9 0 1 0 18 0a9 9 0 0 0 -18 0"/>
        <path d="M12 8v4"/>
        <path d="M12 16h.01"/>
    </symbol>
    <symbol id="tabler-alert-triangle" viewBox="0 0 24 24" fill="none" stroke="currentColor" stroke-width="2" stroke-linecap="round"
            stroke-linejoin="round">
        <path stroke="none" d="M0 0h24v24H0z" fill="none"/>
        <path d="M12 9v4"/>
        <path d="M10.363 3.591l-8.106 13.534a1.914 1.914 0 0 0 1.636 2.871h16.214a1.914 1.914 0 0 0 1.636 -2.87l-8.106 -13.536a1.914 1.914 0 0 0 -3.274 0z"/>
        <path d="M12 16h.01"/>
    </symbol>
    <symbol id="tabler-plant" viewBox="0 0 24 24" fill="none" stroke="currentColor" stroke-width="2" stroke-linecap="round"
            stroke-linejoin="round">
        <path stroke="none" d="M0 0h24v24H0z" fill="none"/>
        <path d="M2 9a10 10 0 1 0 20 0"/>
        <path d="M12 19a10 10 0 0 1 10 -10"/>
        <path d="M2 9a10 10 0 0 1 10 10"/>
        <path d="M12 4a9.7 9.7 0 0 1 2.99 7.5"/>
        <path d="M9.01 11.5a9.7 9.7 0 0 1 2.99 -7.5"/>
    </symbol>
    <symbol id="tabler-arrow-big-left-lines" viewBox="0 0 24 24" fill="currentColor">
        <path stroke="none" d="M0 0h24v24H0z" fill="none"/>
        <path d="M9.586 4l-6.586 6.586a2 2 0 0 0 0 2.828l6.586 6.586a2 2 0 0 0 2.18 .434l.145 -.068a2 2 0 0 0 1.089 -1.78v-2.586h2a1 1 0 0 0 1 -1v-6l-.007 -.117a1 1 0 0 0 -.993 -.883l-2 -.001v-2.585a2 2 0 0 0 -3.414 -1.414z"/>
        <path d="M21 8a1 1 0 0 1 .993 .883l.007 .117v6a1 1 0 0 1 -1.993 .117l-.007 -.117v-6a1 1 0 0 1 1 -1z"/>
        <path d="M18 8a1 1 0 0 1 .993 .883l.007 .117v6a1 1 0 0 1 -1.993 .117l-.007 -.117v-6a1 1 0 0 1 1 -1z"/>
    </symbol>
    <symbol id="tabler-arrow-big-left" viewBox="0 0 24 24" fill="currentColor">
        <path stroke="none" d="M0 0h24v24H0z" fill="none"/>
        <path d="M9.586 4l-6.586 6.586a2 2 0 0 0 0 2.828l6.586 6.586a2 2 0 0 0 2.18 .434l.145 -.068a2 2 0 0 0 1.089 -1.78v-2.586h7a2 2 0 0 0 2 -2v-4l-.005 -.15a2 2 0 0 0 -1.995 -1.85l-7 -.001v-2.585a2 2 0 0 0 -3.414 -1.414z"/>
    </symbol>
    <symbol id="tabler-arrow-big-right-lines" viewBox="0 0 24 24" fill="currentColor">
        <path stroke="none" d="M0 0h24v24H0z" fill="none"/>
        <path d="M12.089 3.634a2 2 0 0 0 -1.089 1.78l-.001 2.585l-1.999 .001a1 1 0 0 0 -1 1v6l.007 .117a1 1 0 0 0 .993 .883l1.999 -.001l.001 2.587a2 2 0 0 0 3.414 1.414l6.586 -6.586a2 2 0 0 0 0 -2.828l-6.586 -6.586a2 2 0 0 0 -2.18 -.434l-.145 .068z"/>
        <path d="M3 8a1 1 0 0 1 .993 .883l.007 .117v6a1 1 0 0 1 -1.993 .117l-.007 -.117v-6a1 1 0 0 1 1 -1z"/>
        <path d="M6 8a1 1 0 0 1 .993 .883l.007 .117v6a1 1 0 0 1 -1.993 .117l-.007 -.117v-6a1 1 0 0 1 1 -1z"/>
    </symbol>
    <symbol id="tabler-arrow-big-right" viewBox="0 0 24 24" fill="currentColor">
        <path stroke="none" d="M0 0h24v24H0z" fill="none"/>
        <path d="M12.089 3.634a2 2 0 0 0 -1.089 1.78l-.001 2.586h-6.999a2 2 0 0 0 -2 2v4l.005 .15a2 2 0 0 0 1.995 1.85l6.999 -.001l.001 2.587a2 2 0 0 0 3.414 1.414l6.586 -6.586a2 2 0 0 0 0 -2.828l-6.586 -6.586a2 2 0 0 0 -2.18 -.434l-.145 .068z"/>
    </symbol>
    <symbol id="tabler-arrow-big-down-lines" viewBox="0 0 24 24" fill="currentColor">
        <path stroke="none" d="M0 0h24v24H0z" fill="none"/>
        <path d="M9 8l-.117 .007a1 1 0 0 0 -.883 .993v1.999l-2.586 .001a2 2 0 0 0 -1.414 3.414l6.586 6.586a2 2 0 0 0 2.828 0l6.586 -6.586a2 2 0 0 0 .434 -2.18l-.068 -.145a2 2 0 0 0 -1.78 -1.089l-2.586 -.001v-1.999a1 1 0 0 0 -1 -1h-6z"/>
        <path d="M15 2a1 1 0 0 1 .117 1.993l-.117 .007h-6a1 1 0 0 1 -.117 -1.993l.117 -.007h6z"/>
        <path d="M15 5a1 1 0 0 1 .117 1.993l-.117 .007h-6a1 1 0 0 1 -.117 -1.993l.117 -.007h6z"/>
    </symbol>
    <symbol id="tabler-arrow-big-down" viewBox="0 0 24 24" fill="currentColor">
        <path stroke="none" d="M0 0h24v24H0z" fill="none"/>
        <path d="M10 2l-.15 .005a2 2 0 0 0 -1.85 1.995v6.999l-2.586 .001a2 2 0 0 0 -1.414 3.414l6.586 6.586a2 2 0 0 0 2.828 0l6.586 -6.586a2 2 0 0 0 .434 -2.18l-.068 -.145a2 2 0 0 0 -1.78 -1.089l-2.586 -.001v-6.999a2 2 0 0 0 -2 -2h-4z"/>
    </symbol>
    <symbol id="tabler-arrow-big-up-lines" viewBox="0 0 24 24" fill="currentColor">
        <path stroke="none" d="M0 0h24v24H0z" fill="none"/>
        <path d="M10.586 3l-6.586 6.586a2 2 0 0 0 -.434 2.18l.068 .145a2 2 0 0 0 1.78 1.089h2.586v2a1 1 0 0 0 1 1h6l.117 -.007a1 1 0 0 0 .883 -.993l-.001 -2h2.587a2 2 0 0 0 1.414 -3.414l-6.586 -6.586a2 2 0 0 0 -2.828 0z"/>
        <path d="M15 20a1 1 0 0 1 .117 1.993l-.117 .007h-6a1 1 0 0 1 -.117 -1.993l.117 -.007h6z"/>
        <path d="M15 17a1 1 0 0 1 .117 1.993l-.117 .007h-6a1 1 0 0 1 -.117 -1.993l.117 -.007h6z"/>
    </symbol>
    <symbol id="tabler-arrow-big-up" viewBox="0 0 24 24" fill="currentColor">
        <path stroke="none" d="M0 0h24v24H0z" fill="none"/>
        <path d="M10.586 3l-6.586 6.586a2 2 0 0 0 -.434 2.18l.068 .145a2 2 0 0 0 1.78 1.089h2.586v7a2 2 0 0 0 2 2h4l.15 -.005a2 2 0 0 0 1.85 -1.995l-.001 -7h2.587a2 2 0 0 0 1.414 -3.414l-6.586 -6.586a2 2 0 0 0 -2.828 0z"/>
    </symbol>
    <symbol id="tabler-shield" viewBox="0 0 24 24" fill="none" stroke="currentColor" stroke-width="2" stroke-linecap="round"
            stroke-linejoin="round">
        <path stroke="none" d="M0 0h24v24H0z" fill="none"/>
        <path d="M12 3a12 12 0 0 0 8.5 3a12 12 0 0 1 -8.5 15a12 12 0 0 1 -8.5 -15a12 12 0 0 0 8.5 -3"/>
    </symbol>
    <symbol id="tabler-calendar-week" viewBox="0 0 24 24" fill="none" stroke="currentColor" stroke-width="2" stroke-linecap="round"
            stroke-linejoin="round">
        <path d="M4 7a2 2 0 0 1 2 -2h12a2 2 0 0 1 2 2v12a2 2 0 0 1 -2 2h-12a2 2 0 0 1 -2 -2v-12z"/>
        <path d="M16 3v4"/>
        <path d="M8 3v4"/>
        <path d="M4 11h16"/>
        <path d="M7 14h.013"/>
        <path d="M10.01 14h.005"/>
        <path d="M13.01 14h.005"/>
        <path d="M16.015 14h.005"/>
        <path d="M13.015 17h.005"/>
        <path d="M7.01 17h.005"/>
        <path d="M10.01 17h.005"/>
    </symbol>
    <symbol id="tabler-users-group" viewBox="0 0 24 24" fill="none" stroke="currentColor" stroke-width="2" stroke-linecap="round"
            stroke-linejoin="round">
        <path stroke="none" d="M0 0h24v24H0z" fill="none"/>
        <path d="M10 13a2 2 0 1 0 4 0a2 2 0 0 0 -4 0"/>
        <path d="M8 21v-1a2 2 0 0 1 2 -2h4a2 2 0 0 1 2 2v1"/>
        <path d="M15 5a2 2 0 1 0 4 0a2 2 0 0 0 -4 0"/>
        <path d="M17 10h2a2 2 0 0 1 2 2v1"/>
        <path d="M5 5a2 2 0 1 0 4 0a2 2 0 0 0 -4 0"/>
        <path d="M3 13v-1a2 2 0 0 1 2 -2h2"/>
    </symbol>
</svg>