<?xml version="1.0" encoding="utf-8"?>
<svg version="1.1" xmlns="http://www.w3.org/2000/svg" xmlns:xlink="http://www.w3.org/1999/xlink" x="0px" y="0px"
	viewBox="0 0 500 500" style="enable-background:new 0 0 500 500;" xml:space="preserve">
	<g id="bg">
		<path style="fill:#E6E6E6;" d="M470,500H30c-16.6,0-30-13.4-30-30V30C0,13.4,13.4,0,30,0h440c16.6,0,30,13.4,30,30v440
		C500,486.6,486.6,500,470,500z" />
	</g>
	<g id="p">
		<path style="fill:#222222;" d="M310,50H70c-16.6,0-30,13.4-30,30v340c0,16.6,13.4,30,30,30h39c8,0,12.8-8.9,8.3-15.6
		C106.7,418.8,100,400.1,100,380V140c0-11,9-20,20-20h170c11,0,20,9,20,20v100c0,11-9,20-20,20h-50c-11,0-20,9-20,20v30
		c0,11,9,20,20,20h100c16.6,0,30-13.4,30-30V110C370,76.9,343.1,50,310,50z" />
	</g>
	<g id="d">
		<path style="fill:#4B804B;" d="M190,450h240c16.6,0,30-13.4,30-30V80c0-16.6-13.4-30-30-30h-37.8c-7.9,0-12.7,8.8-8.4,15.4
		C394,81.1,400,99.9,400,120v240c0,11-9,20-20,20H210c-11,0-20-9-20-20V260c0-11,9-20,20-20h50c11,0,20-9,20-20v-30c0-11-9-20-20-20
		H160c-16.6,0-30,13.4-30,30v190C130,423.1,156.9,450,190,450z" />
	</g>
</svg>